<svg width="20" height="18" viewBox="0 0 20 18" fill="none" xmlns="http://www.w3.org/2000/svg">
<path d="M13.366 0.438L16.577 6H20V8H18.833L18.076 17.083C18.0552 17.3329 17.9413 17.5658 17.7568 17.7357C17.5723 17.9055 17.3308 17.9999 17.08 18H2.92C2.66925 17.9999 2.4277 17.9055 2.24322 17.7357C2.05875 17.5658 1.94481 17.3329 1.924 17.083L1.166 8H0V6H3.422L6.634 0.438L8.366 1.438L5.732 6H14.267L11.634 1.438L13.366 0.438ZM16.826 8H3.173L3.84 16H16.159L16.826 8ZM11 10V14H9V10H11ZM7 10V14H5V10H7ZM15 10V14H13V10H15Z" fill="white"/>
</svg>
