<svg width="20" height="20" viewBox="0 0 20 20" fill="none" xmlns="http://www.w3.org/2000/svg">
<path d="M1 10C1 8.8181 1.23279 7.64778 1.68509 6.55585C2.13738 5.46392 2.80031 4.47177 3.63604 3.63604C4.47177 2.80031 5.46392 2.13738 6.55585 1.68508C7.64778 1.23279 8.81811 1 10 1L10 2.90736C9.06858 2.90736 8.14628 3.09081 7.28576 3.44725C6.42524 3.80369 5.64336 4.32613 4.98474 4.98474C4.32613 5.64336 3.80369 6.42524 3.44725 7.28576C3.09081 8.14628 2.90736 9.06858 2.90736 10L1 10Z" stroke="#5A5A5A"/>
<path d="M19 10C19 11.1819 18.7672 12.3522 18.3149 13.4442C17.8626 14.5361 17.1997 15.5282 16.364 16.364C15.5282 17.1997 14.5361 17.8626 13.4442 18.3149C12.3522 18.7672 11.1819 19 10 19L10 17.0926C10.9314 17.0926 11.8537 16.9092 12.7142 16.5527C13.5748 16.1963 14.3566 15.6739 15.0153 15.0153C15.6739 14.3566 16.1963 13.5748 16.5527 12.7142C16.9092 11.8537 17.0926 10.9314 17.0926 10H19Z" stroke="#5A5A5A"/>
</svg>
